#!OML:ASF I:\Actors\actors\Patient Classification 1\Patient 1\Session 1\Subject1.ASF
:FULLY-SPECIFIED
:DEGREES
865
root 0.742371 17.4501 10.0401 10.4316 5.95873 -8.2218
lowerback -4.12909 1.11 5.5614
upperback -12.1768 1.77103 1.30735
thorax -10.587 0.436079 -1.78062
lowerneck -12.2372 0.0371754 -0.462873
upperneck 18.1572 -0.890643 5.28808
head 7.63765 0.0519349 1.72614
rclavicle 2.5842e-014 -3.53837e-014
rhumerus -53.375 -26.013 -57.3466
rradius 25.6065
rwrist 44.9881
rhand 6.02681 -29.6834
rfingers 7.12502
rthumb 31.3489 -57.0178
lclavicle 2.5842e-014 -3.53837e-014
lhumerus 27.0542 -15.458 58.2791
lradius 146.444
lwrist 23.489
lhand -17.8061 -17.1536
lfingers 7.12502
lthumb 8.45748 12.657
rfemur -0.740322 24.289 26.8191
rtibia 1.1377
rfoot -17.7394 -32.358
rtoes 9.81236
lfemur 5.17371 -47.5619 -12.5733
ltibia -5.18693
lfoot -18.4042 50.2207
ltoes 4.94182
866
root 0.744957 17.4481 10.0422 10.4018 5.94295 -8.20314
lowerback -3.59753 1.2226 5.95376
upperback -12.5555 1.97146 1.01853
thorax -11.3236 0.450948 -2.33293
lowerneck -12.3362 -0.142606 -0.454983
upperneck 18.8797 -1.23515 5.58109
head 7.90784 -0.069029 1.79593
rclavicle -1.95803e-014 -2.78299e-015
rhumerus -54.3086 -25.9301 -57.2756
rradius 25.7153
rwrist 44.8944
rhand 5.91502 -29.7333
rfingers 7.12502
rthumb 31.2423 -57.0883
lclavicle -1.95803e-014 -2.78299e-015
lhumerus 26.3242 -16.9546 58.3805
lradius 146.724
lwrist 22.1944
lhand -18.1608 -17.4579
lfingers 7.12502
lthumb 8.11514 12.3663
rfemur -0.719377 24.2297 26.8018
rtibia 1.18579
rfoot -17.7204 -32.3091
rtoes 9.60217
lfemur 5.22654 -47.4693 -12.6424
ltibia -5.18953
lfoot -18.1483 50.1505
ltoes 4.59988
867
root 0.747417 17.4463 10.0456 10.3448 5.89495 -8.13321
lowerback -3.40792 1.25959 6.08671
upperback -12.6416 2.03365 0.884822
thorax -11.5294 0.450943 -2.56022
lowerneck -12.5267 -0.270971 -0.468859
upperneck 19.2295 -1.46984 5.76871
head 8.06874 -0.153829 1.84132
rclavicle 1.39149e-015 -3.06128e-014
rhumerus -54.5628 -25.9018 -57.402
rradius 25.7236
rwrist 44.8962
rhand 5.77207 -29.6586
rfingers 7.12502
rthumb 31.1061 -57.0398
lclavicle 1.39149e-015 -3.06128e-014
lhumerus 25.8783 -18.0677 58.4498
lradius 146.943
lwrist 20.4206
lhand -18.5657 -18.466
lfingers 7.12502
lthumb 7.72432 11.3729
rfemur -0.667068 24.1003 26.7226
rtibia 1.23325
rfoot -17.7333 -32.1598
rtoes 9.51047
lfemur 5.34626 -47.3663 -12.8395
ltibia -5.16543
lfoot -18.0982 50.073
ltoes 4.4631
868
root 0.749455 17.4446 10.0491 10.3184 5.81984 -8.05283
lowerback -3.59668 1.20855 5.97037
upperback -12.465 1.94086 0.948782
thorax -11.217 0.433579 -2.41513
lowerneck -12.7042 -0.295331 -0.496966
upperneck 19.1084 -1.51325 5.8563
head 8.0632 -0.167827 1.86967
rclavicle 1.799e-014 -1.78906e-014
rhumerus -54.1895 -25.8245 -57.7481
rradius 25.7672
rwrist 44.9052
rhand 5.76879 -29.5432
rfingers 7.12502
rthumb 31.103 -56.925
lclavicle 1.799e-014 -1.78906e-014
lhumerus 25.8062 -18.0844 58.4942
lradius 147.19
lwrist 18.4058
lhand -18.8866 -19.8162
lfingers 7.12502
lthumb 7.41465 10.0338
rfemur -0.659934 23.9582 26.6054
rtibia 1.2823
rfoot -17.6825 -31.9679
rtoes 9.29144
lfemur 5.46126 -47.3519 -13.0522
ltibia -5.14497
lfoot -18.2061 50.1201
ltoes 4.44949
869
root 0.751572 17.4435 10.0516 10.3376 5.70694 -8.03771
lowerback -3.95572 1.12175 5.79611
upperback -12.1675 1.78946 1.14066
thorax -10.6717 0.408625 -2.09404
lowerneck -12.8752 -0.273638 -0.673484
upperneck 18.6759 -1.47945 6.11457
head 7.95206 -0.14527 1.98385
rclavicle -5.76476e-015 2.66371e-014
rhumerus -53.5183 -25.6396 -58.2401
rradius 25.8322
rwrist 44.8485
rhand 5.53089 -29.3417
rfingers 7.12502
rthumb 30.8762 -56.7667
lclavicle -5.76476e-015 2.66371e-014
lhumerus 26.0211 -17.1856 58.4782
lradius 147.522
lwrist 15.4196
lhand -19.5084 -21.9165
lfingers 7.12502
lthumb 6.81435 7.9538
rfemur -0.708884 23.8633 26.5415
rtibia 1.3203
rfoot -17.5503 -31.7937
rtoes 8.92672
lfemur 5.5745 -47.479 -13.186
ltibia -5.16653
lfoot -18.3488 50.368
ltoes 4.50365
870
root 0.754333 17.4444 10.053 10.3686 5.56472 -8.05971
lowerback -4.09401 1.07326 5.76679
upperback -11.9941 1.71145 1.25765
thorax -10.3969 0.389763 -1.945
lowerneck -13.0907 -0.344127 -0.982373
upperneck 18.3775 -1.61316 6.6787
head 7.90415 -0.178297 2.20615
rclavicle 1.05356e-014 6.36111e-015
rhumerus -53.0898 -25.4391 -58.6298
rradius 25.8056
rwrist 44.9426
rhand 4.61197 -28.7687
rfingers 7.12502
rthumb 29.9998 -56.356
lclavicle 1.05356e-014 6.36111e-015
lhumerus 26.2146 -16.1805 58.3659
lradius 147.923
lwrist 11.0596
lhand -21.4034 -26.1536
lfingers 7.12502
lthumb 4.98482 3.76773
rfemur -0.772715 23.8013 26.5185
rtibia 1.36504
rfoot -17.4412 -31.6098
rtoes 8.56746
lfemur 5.68746 -47.6278 -13.2871
ltibia -5.16747
lfoot -18.6401 50.6146
ltoes 4.88426
871
root 0.756338 17.447 10.0536 10.4486 5.41345 -8.0174
lowerback -3.56785 1.14176 5.98204
upperback -12.3217 1.85089 1.05061
thorax -11.0765 0.399502 -2.30625
lowerneck -13.094 -0.582655 -1.1324
upperneck 18.5558 -2.06617 7.37378
head 7.99385 -0.332375 2.41803
rclavicle -2.50469e-014 7.95139e-015
rhumerus -53.8123 -25.1948 -58.6954
rradius 25.8792
rwrist 45.3095
rhand 2.88811 -27.9563
rfingers 7.12502
rthumb 28.3536 -55.8294
lclavicle -2.50469e-014 7.95139e-015
lhumerus 26.0715 -15.7931 58.3411
lradius 148.203
lwrist 4.56358
lhand -25.3257 -32.3056
lfingers 7.12502
lthumb 1.19699 -2.32918
rfemur -0.906717 23.7746 26.3947
rtibia 1.43099
rfoot -17.3707 -31.4367
rtoes 8.29302
lfemur 5.6978 -47.7901 -13.3907
ltibia -5.13037
lfoot -19.0937 50.8356
ltoes 5.49191
872
root 0.756617 17.4501 10.0544 10.5718 5.23729 -7.96539
lowerback -3.89416 1.04059 5.71099
upperback -12.0459 1.67906 1.22162
thorax -10.5779 0.369932 -1.95514
lowerneck -13.5413 -0.619391 -1.16805
upperneck 18.2383 -2.15786 7.68058
head 7.97863 -0.347332 2.51341
rclavicle 2.66371e-014 -3.57812e-015
rhumerus -53.0918 -24.9589 -59.2411
rradius 25.8351
rwrist 46.023
rhand 0.449894 -27.3525
rfingers 7.12502
rthumb 26.0212 -55.5906
lclavicle 2.66371e-014 -3.57812e-015
lhumerus 26.5961 -14.202 58.4756
lradius 148.175
lwrist -3.94597
lhand -31.5751 -38.7437
lfingers 7.12502
lthumb -4.83842 -8.81898
rfemur -1.08102 23.817 26.2372
rtibia 1.45409
rfoot -17.256 -31.3026
rtoes 8.19413
lfemur 5.65815 -48.0059 -13.455
ltibia -5.12344
lfoot -19.4037 51.1607
ltoes 5.87119
873
root 0.756601 17.4525 10.055 10.6951 5.05276 -7.98179
lowerback -3.81104 1.05163 5.74784
upperback -12.0532 1.69863 1.19898
thorax -10.6337 0.372384 -2.0024
lowerneck -13.7279 -0.771476 -1.31722
upperneck 17.9668 -2.4392 8.26482
head 7.94709 -0.437115 2.69994
rclavicle -1.20265e-014 -1.78906e-014
rhumerus -53.0676 -24.6642 -59.7055
rradius 25.9489
rwrist 46.6028
rhand -2.2209 -27.2628
rfingers 7.12502
rthumb 23.4615 -55.8523
lclavicle -1.20265e-014 -1.78906e-014
lhumerus 27.2406 -11.6401 59.5511
lradius 148.701
lwrist -7.19329
lhand -33.8944 -48.3767
lfingers 7.12502
lthumb -7.07761 -18.515
rfemur -1.23362 23.8593 26.1607
rtibia 1.4227
rfoot -17.1129 -31.162
rtoes 8.23385
lfemur 5.6367 -48.2219 -13.442
ltibia -5.14305
lfoot -19.65 51.5131
ltoes 6.12339
874
root 0.756498 17.4538 10.0551 10.8535 4.86261 -8.06417
lowerback -3.7589 1.08897 5.84084
upperback -12.0561 1.75455 1.19861
thorax -10.6634 0.389576 -2.0581
lowerneck -13.9315 -0.96557 -1.61087
upperneck 17.6234 -2.75077 8.91115
head 7.90134 -0.546948 2.92692
rclavicle -1.2921e-014 1.35174e-014
rhumerus -52.9969 -24.356 -60.1792
rradius 26.0929
rwrist 46.9443
rhand -4.54272 -27.6125
rfingers 7.12502
rthumb 21.2327 -56.4696
lclavicle -1.2921e-014 1.35174e-014
lhumerus 28.0269 -8.94083 61.0823
lradius 149.157
lwrist -10.2457
lhand -36.9866 -58.3629
lfingers 7.12502
lthumb -10.0617 -28.6234
rfemur -1.43019 23.9291 26.1439
rtibia 1.38546
rfoot -16.9784 -31.0394
rtoes 8.07467
lfemur 5.54165 -48.4369 -13.294
ltibia -5.147
lfoot -20.0552 51.8736
ltoes 6.39375
875
root 0.755797 17.4554 10.0559 11.0511 4.65821 -8.11745
lowerback -3.71766 1.11696 5.8979
upperback -12.0727 1.79629 1.19251
thorax -10.7037 0.40232 -2.09919
lowerneck -14.0879 -1.14037 -1.84048
upperneck 17.27 -3.02643 9.46526
head 7.84261 -0.646034 3.11557
rclavicle 2.08724e-015 3.57812e-014
rhumerus -52.9154 -23.9921 -60.6914
rradius 26.3081
rwrist 46.8602
rhand -6.30303 -28.0337
rfingers 7.12502
rthumb 19.541 -57.0717
lclavicle 2.08724e-015 3.57812e-014
lhumerus 29.0023 -5.68224 63.0521
lradius 149.658
lwrist -13.0427
lhand -39.4728 -66.5498
lfingers 7.12502
lthumb -12.4595 -36.9412
rfemur -1.63774 24.1271 26.0894
rtibia 1.30947
rfoot -16.8805 -31.0099
rtoes 7.92587
lfemur 5.3976 -48.6577 -13.134
ltibia -5.16176
lfoot -20.5007 52.2327
ltoes 6.75169
876
root 0.755769 17.4567 10.0578 11.2827 4.43376 -8.046
lowerback -3.71775 1.10145 5.82861
upperback -12.109 1.77118 1.16028
thorax -10.7473 0.392213 -2.09419
lowerneck -14.1753 -1.24698 -1.89565
upperneck 17.0128 -3.22141 9.86692
head 7.79537 -0.709266 3.23389
rclavicle 3.97569e-016 -3.97569e-015
rhumerus -52.828 -23.5714 -61.2175
rradius 26.5122
rwrist 46.4602
rhand -7.72966 -28.2253
rfingers 7.12502
rthumb 18.1689 -57.3968
lclavicle 3.97569e-016 -3.97569e-015
lhumerus 30.253 -1.97323 65.227
lradius 150.11
lwrist -15.3203
lhand -41.215 -71.1111
lfingers 7.12502
lthumb -14.1388 -41.6122
rfemur -1.859 24.3435 25.8765
rtibia 1.21286
rfoot -16.7904 -31.0032
rtoes 7.946
lfemur 5.22046 -48.8455 -13.0966
ltibia -5.17991
lfoot -21.0322 52.5351
ltoes 7.37934
877
root 0.756977 17.4565 10.0604 11.5152 4.1673 -7.9552
lowerback -3.74601 1.08704 5.7331
upperback -12.1455 1.74396 1.12315
thorax -10.7743 0.383752 -2.0792
lowerneck -14.2917 -1.36141 -1.95648
upperneck 16.8324 -3.43101 10.2644
head 7.78081 -0.777552 3.35158
rclavicle 1.26228e-014 -2.8625e-014
rhumerus -52.7058 -23.2479 -61.6243
rradius 26.5833
rwrist 46.0402
rhand -9.14803 -28.1966
rfingers 7.12502
rthumb 16.8039 -57.4895
lclavicle 1.26228e-014 -2.8625e-014
lhumerus 31.7667 1.36365 67.3656
lradius 150.137
lwrist -17.3547
lhand -43.0687 -71.6599
lfingers 7.12502
lthumb -15.9246 -42.2946
rfemur -2.10991 24.5035 25.6235
rtibia 1.16727
rfoot -16.696 -30.915
rtoes 7.94175
lfemur 5.07835 -49.044 -13.1327
ltibia -5.17656
lfoot -21.6361 52.8673
ltoes 8.02162
878
root 0.757592 17.4554 10.0627 11.6683 3.88018 -7.95321
lowerback -3.68904 1.10815 5.71862
upperback -12.1599 1.77307 1.09418
thorax -10.822 0.395353 -2.10499
lowerneck -14.3959 -1.53864 -2.13005
upperneck 16.6585 -3.719 10.7497
head 7.77665 -0.882451 3.50917
rclavicle 1.87852e-014 1.51076e-014
rhumerus -52.5879 -23.1045 -61.8571
rradius 26.5489
rwrist 45.9832
rhand -10.546 -28.1033
rfingers 7.12502
rthumb 15.4578 -57.5053
lclavicle 1.87852e-014 1.51076e-014
lhumerus 33.1951 3.75133 69.2326
lradius 149.727
lwrist -19.5504
lhand -45.1215 -69.5558
lfingers 7.12502
lthumb -17.9005 -40.3596
rfemur -2.27895 24.6923 25.5173
rtibia 1.15313
rfoot -16.6209 -30.8146
rtoes 7.93236
lfemur 5.11915 -49.3145 -13.2125
ltibia -5.18434
lfoot -22.2571 53.2826
ltoes 8.54857
879
root 0.756902 17.4544 10.064 11.7813 3.62658 -8.02584
lowerback -3.58491 1.1251 5.75826
upperback -12.1681 1.80285 1.08138
thorax -10.891 0.402477 -2.14447
lowerneck -14.4138 -1.70999 -2.30021
upperneck 16.4891 -3.99225 11.2046
head 7.75869 -0.98562 3.65754
rclavicle -2.24627e-014 -1.47101e-014
rhumerus -52.5084 -23.1221 -61.9351
rradius 26.4918
rwrist 46.5445
rhand -11.6479 -28.0808
rfingers 7.12502
rthumb 14.3963 -57.5616
lclavicle -2.24627e-014 -1.47101e-014
lhumerus 34.4883 5.59878 70.8231
lradius 147.606
lwrist -21.6341
lhand -47.877 -67.7247
lfingers 7.12502
lthumb -20.5502 -38.7924
rfemur -2.41289 24.7891 25.5134
rtibia 1.12167
rfoot -16.4612 -30.6768
rtoes 7.74768
lfemur 5.23428 -49.7176 -13.2535
ltibia -5.20054
lfoot -23.1998 53.7761
ltoes 9.41075
